<?xml version="1.0" encoding="utf-8"?>
<!-- Generator: Adobe Illustrator 25.0.1, SVG Export Plug-In . SVG Version: 6.00 Build 0)  -->
<svg version="1.1" xmlns="http://www.w3.org/2000/svg" xmlns:xlink="http://www.w3.org/1999/xlink" x="0px" y="0px"
	 viewBox="0 0 500 500" style="enable-background:new 0 0 500 500;" xml:space="preserve">
<style type="text/css">
	.st0{fill:#FFFFFF;}
	.st1{fill:#A3BBC8;}
	.st2{fill:#CBE8F4;}
	.st3{fill:#436372;}
	.st4{fill:#A3D0D8;}
	.st5{fill:#709DA0;}
	.st6{fill:#82B7BC;}
	.st7{fill:#6B7D7E;}
	.st8{fill:#A9C0C9;}
	.st9{fill:#8CA8AF;}
	.st10{fill:none;}
	.st11{font-family:'Rubik-Medium';}
	.st12{font-size:16.8848px;}
	.st13{letter-spacing:2;}
	.st14{font-size:95.3496px;}
	.st15{font-size:26.8171px;}
	.st16{letter-spacing:1;}
</style>
<g id="BACKGROUND">
	<rect x="0" class="st0" width="500" height="500"/>
</g>
<g id="OBJECTS">
	<g>
		<path class="st1" d="M265.6,50.4c-21.1-0.2-149.1-2.2-152.8,33.5c-3.6,34.1,46,21.6,46.5,36.8c0.5,15.9-8.9,20.5-35.3,19.5
			c-11.4-0.4-47.5,3.6-48.1,26.4c-0.6,22.7,39.7,19.8,37.7,38.6c-1.2,21.4-31.8,26-43.8,31.7c-13.1,6.9-37.2,18.1-31.7,42.4
			c7.3,28.1,53.6,23.1,71,26.5c11.6,1.9,48.7,5.2,43.4,30.1c-2.8,15-33.2,15.8-27.4,35.1c5.9,18,58.9,21.5,69.6,22.1
			c44.6,2.4,142.5,6.4,186.1-12c16-6.7,30.2-14.8,28.5-38.8c-0.8-21.5-12.4-24.6,7.1-41.2c12.3-10.7,35.9-9.8,34.5-41
			c-0.8-16.8-43.8-23.8-42.8-41.4c1.5-27.6,54.3-4.2,54.5-53.1c0.1-30.5-95.9-13.4-94.9-43.6c-1.3-12.3,19.8-17.5,18.9-31
			C387.2,69.1,362.3,53,265.6,50.4z"/>
	</g>
	<path class="st2" d="M181.8,271.8c-0.1,0.1-0.2,0.1-0.4,0.1c-24.5,0-49,0-73.5,0c-0.3,0-0.7-0.2-0.7-0.6c-0.8-3.5,3.2-6.2,6-4.9
		c0.4-1.8,2.1-3,4-2.8c-1-3.2,0.4-6.4,3.7-8c3.1-1.4,6-0.3,7.8,2.1c1.1-5.4,5.7-10.1,11.4-10.5c3.1-0.2,6.4,0.7,8.8,2.7
		c2.4,2,3.2,4.2,3.8,6.9c1.8-2.6,4.7-3.8,8-2.8c3.3,1,3.7,4.4,3.6,7.4c2.7-2.2,5.9-3.3,9.3-1.2c2.9,1.7,3.5,4.5,3.6,7.5
		c2.4-1.4,4.8,0,5,3.2C182.2,271.5,182.1,271.7,181.8,271.8z"/>
	<path class="st2" d="M386.9,119.4c0,14.1,38.2,16.7,40.2,0C429.2,102.7,386.9,98.2,386.9,119.4z"/>
	<path class="st2" d="M78.2,336.2c0,14.1,47.3,16.8,49,0C129.4,315.5,78.2,311.5,78.2,336.2z"/>
	<path class="st2" d="M354,415.7c0,16.7,56.1,19.9,58.2,0C414.7,391.1,354,386.4,354,415.7z"/>
	<path class="st2" d="M74.2,120.4c0,9.2,26.1,11,27,0C102.4,106.9,74.2,104.3,74.2,120.4z"/>
	<path class="st0" d="M223.7,284.3c0.8-3.9-5-7.5-9.5-6.1c0.7-2.7-0.1-5.1-4.1-6.3c-1.6-0.5-3.6-0.5-5.4,0
		c3.1-6.2,0.2-13.3-9.4-14.8c-10.5-1.6-22.1,3.6-24.2,11.8c-8.5-8.4-26.6,1.7-21.3,11.3c-3.3-0.5-6.7,1.3-6.9,4.1
		c-3.3-1.1-6,2.3-3.9,5.2c0.1,0.2,0.5,0.3,0.8,0.3c29.7,0,59.3,0,89,0c0.2,0,0.4-0.1,0.5-0.1c0.1-0.1,0.3-0.2,0.3-0.4
		C230.7,286.5,227,283.8,223.7,284.3z"/>
	<path class="st0" d="M224.6,350.6c0.3-1.7-2.2-3.3-4.2-2.7c0.3-1.2,0-2.3-1.8-2.8c-0.7-0.2-1.6-0.2-2.4,0c1.4-2.7,0.1-5.9-4.2-6.5
		c-4.6-0.7-9.8,1.6-10.7,5.2c-3.8-3.7-11.8,0.7-9.4,5c-1.5-0.2-3,0.6-3,1.8c-1.5-0.5-2.6,1-1.7,2.3c0.1,0.1,0.2,0.2,0.3,0.2
		c13.1,0,26.2,0,39.3,0c0.1,0,0.2,0,0.2-0.1c0.1,0,0.1-0.1,0.1-0.2C227.7,351.6,226.1,350.4,224.6,350.6z"/>
	<path class="st0" d="M383.4,190.2c0.1,0,0.2,0.1,0.3,0.1c18.2,0,36.5,0,54.7,0c0.2,0,0.5-0.2,0.5-0.4c0.6-2.6-2.4-4.6-4.4-3.6
		c-0.3-1.3-1.6-2.2-3-2.1c0.8-2.4-0.3-4.8-2.8-5.9c-2.3-1.1-4.4-0.2-5.8,1.5c-0.8-4-4.3-7.5-8.5-7.8c-2.3-0.2-4.7,0.5-6.5,2
		c-1.8,1.5-2.4,3.1-2.8,5.2c-1.3-1.9-3.5-2.8-6-2.1c-2.5,0.8-2.8,3.3-2.7,5.5c-2-1.6-4.4-2.4-6.9-0.9c-2.1,1.3-2.6,3.4-2.7,5.6
		c-1.8-1-3.6,0-3.7,2.4C383.1,190,383.2,190.2,383.4,190.2z"/>
	<path class="st0" d="M240.8,92c0.1,0,0.1,0.1,0.2,0.1c12.3,0,24.6,0,37,0c0.2,0,0.3-0.1,0.4-0.3c0.4-1.8-1.6-3.1-3-2.5
		c-0.2-0.9-1.1-1.5-2-1.4c0.5-1.6-0.2-3.2-1.9-4c-1.5-0.7-3-0.1-3.9,1c-0.5-2.7-2.9-5.1-5.7-5.3c-1.6-0.1-3.2,0.3-4.4,1.3
		c-1.2,1-1.6,2.1-1.9,3.5c-0.9-1.3-2.4-1.9-4-1.4c-1.7,0.5-1.9,2.2-1.8,3.7c-1.3-1.1-2.9-1.6-4.7-0.6c-1.4,0.9-1.8,2.3-1.8,3.8
		c-1.2-0.7-2.4,0-2.5,1.6C240.6,91.9,240.7,92,240.8,92z"/>
	<path class="st3" d="M328.4,412.7c0-0.1-0.1-0.3-0.1-0.4c-0.1-0.2-0.3-0.4-0.6-0.4c-9.3,0.1-18.6,0.3-27.9,0.5
		c-0.4,0-0.7,0.3-0.7,0.7c0.2,5.4-0.2,10.9,0.7,16.3c0.8,5,6.3,5.3,10.5,5.6c5.4,0.3,13.1,0.5,16.2-2.4
		C330,429.4,328.6,418,328.4,412.7z"/>
	<g>
		<path class="st4" d="M303.9,423.3c-4.2,0-5.2-4-5.2-4c-0.1-0.2,0.1-0.5,0.3-0.5c0.2,0,0.5,0.1,0.5,0.3c0,0.2,1,4.1,5.6,3.2
			c3-0.6,3.3-6.9,3.3-7c0-0.2,0.2-0.4,0.4-0.4c0.2,0,0.4,0.1,0.5,0.3c0.1,0.3,0.2,0.6,0.3,1.1c0.4,1.5,0.9,3.9,2,4.9
			c1.4,1.2,4.6,1.4,6.3,0.6c1.7-0.7,2.5-3.1,2.5-5.3c0-0.3-0.1-0.6-0.1-1c0-0.2,0.2-0.4,0.4-0.4c0.2,0,0.4,0.1,0.5,0.4
			c0,0.3,0.1,0.6,0.1,1c0.4,2.3,1.7,4.3,3.5,4.8c1.4,0.4,2.7-0.2,3.8-1.7c0.1-0.2,0.4-0.2,0.6-0.1c0.2,0.1,0.2,0.4,0.1,0.6
			c-1.3,1.8-3,2.5-4.7,2c-1.5-0.4-2.7-1.7-3.5-3.3c-0.4,1.7-1.3,3.2-2.8,3.8c-1.9,0.8-5.5,0.7-7.2-0.8c-1-0.9-1.6-2.5-2-4
			c-0.4,2.1-1.4,5-3.7,5.4C304.8,423.2,304.3,423.3,303.9,423.3z"/>
	</g>
	<g>
		<path class="st5" d="M313.1,410.1c-3,0-13,0.1-14.1,2.4c-1.5,3.2,14.9,2.9,18,2.8C332,414.9,333.7,409.4,313.1,410.1z"/>
	</g>
	<g>
		<path class="st4" d="M313.1,409.6c-1.7,0-16-0.2-14.7,3.6c0.6,1.9,3.7,2.1,5.3,2.3c3.5,0.5,7.2,0.5,10.8,0.5
			c3.2,0,6.3-0.2,9.5-0.7c1.4-0.2,4.4-0.7,5-2.4C330.5,408.7,314.2,409.5,313.1,409.6c-0.7,0-0.7,1.2,0,1.1c3.3-0.1,6.5-0.1,9.8,0.2
			c0.6,0.1,6.3,0.8,4.4,2c-3.4,2.2-8.9,1.8-12.9,1.9c-4.4,0-9.1,0.1-13.4-1c-2.1-0.6-0.7-1.7,0.7-2.1c1.4-0.4,3-0.5,4.5-0.7
			c2.3-0.2,4.6-0.3,6.9-0.3C313.8,410.7,313.8,409.6,313.1,409.6z"/>
	</g>
	<g>
		<g>
			<path class="st6" d="M328.6,378.5c-0.2,11.3-0.6,22.6-0.7,33.9c0,0.6,0.9,0.6,0.9,0c0.2-11.3,0.6-22.6,0.7-33.9
				C329.5,377.9,328.6,377.9,328.6,378.5L328.6,378.5z"/>
		</g>
		<g>
			<path class="st6" d="M296.8,378.3c0.3,11.5,0.5,22.9,1.7,34.3c0.1,0.5,0.9,0.5,0.9,0c-1.2-11.4-1.4-22.8-1.7-34.3
				C297.7,377.7,296.8,377.7,296.8,378.3L296.8,378.3z"/>
		</g>
		<g>
			<path class="st6" d="M312.3,380.2c1,11.5-0.2,23.1,0.8,34.7c0,0.5,0.9,0.6,0.9,0c-1-11.5,0.2-23.1-0.8-34.7
				C313.2,379.6,312.3,379.6,312.3,380.2L312.3,380.2z"/>
		</g>
	</g>
	<path class="st3" d="M372.9,280c-3.6-9.1-10.3-18.3-20.7-20.1c-0.1,0-0.2,0-0.2,0c-0.1,0-0.1,0-0.2,0c-7.8-0.8-12.3,7-15,12.9
		c-4.9,10.7-7.1,22.7-9,34.3c-3.8,22.7-7.7,47.5-1.1,70c0.4,1.2,2,1.4,2.7,0.3c7.1-10.9,21.8-14.7,31.2-23.4
		c9.8-9.1,14.8-22.4,16.4-35.3C378.6,305.4,377.8,292.4,372.9,280z"/>
	<path class="st2" d="M295.5,316.6c-3.5-18.7-11.6-37.3-21-53.8c-0.3-0.6-0.9-0.8-1.4-0.7c-0.2,0-0.4,0.1-0.7,0.2
		c-9.5,4.9-14.5,14.2-17.7,23.8c-3.4,10.3-5.2,22.9-3.6,33.7c2.1,14,10,26.3,20.4,35.9c8.5,7.8,19.1,12.9,26.7,21.9
		c0.8,1,2.5,0.2,2.5-1C300.6,356.5,299.1,336.3,295.5,316.6z"/>
	<path class="st2" d="M340.5,249c-8.3-4.6-18.1-5.3-27.3-3.5c-0.6,0.1-0.9,0.5-1,0.9c-5.6,8-6.4,19.1-7.2,28.4
		c-1.3,14.6-0.9,29.4-0.3,44.1c0.9,19.8,2.5,39.6,5.1,59.2c0.1,0.8,0.6,1.4,1.5,1.4c5.7,0,11.3,0,17,0c0.5,0,1-0.3,1.3-0.7
		c15.7-28.8,20.1-63.4,22.7-95.6c0.6-7.3,1.1-14.7,1.2-22C353.4,256.4,344,250.9,340.5,249z"/>
	<path class="st3" d="M316.9,251.2c-2.7-15.3-29.7-3.1-36.9,2.1c-6.6,4.8-8.4,9.4-8.8,16.8c-0.7,12.3,0,24.7,1.5,37
		c2.2,16.8,6.4,33.5,13.2,49.1c2.1,4.7,4.4,9.4,6.9,13.9c1.1,2.1,3.6,8.6,6.1,9.3c3.6,1,8.5,0.1,12.2,0.1c0.7,0,1.2-0.4,1.4-1
		c0.1-0.1,0.1-0.3,0.1-0.5c2.3-28,4.2-56,5.1-84C318.3,280,319.4,265.1,316.9,251.2z"/>
	<g>
		<path class="st6" d="M296.5,380.1c11,2,22.5,1.9,33.5,0c3.1-0.5,1.8-4.7-1.3-4.2c-10,1.7-20.8,1.9-30.8,0
			C294.7,375.4,293.3,379.6,296.5,380.1L296.5,380.1z"/>
	</g>
	<path class="st3" d="M195.3,107.5c0-0.1,0-0.1,0-0.2c0-0.1-0.1-0.2-0.3-0.2c-4,0.1-8.1,0.1-12.1,0.2c-0.2,0-0.3,0.1-0.3,0.3
		c0.1,2.3-0.1,4.7,0.3,7c0.4,2.2,2.7,2.3,4.5,2.4c2.3,0.1,5.7,0.2,7-1C196,114.7,195.4,109.8,195.3,107.5z"/>
	<g>
		<path class="st3" d="M184.7,112.1c-1.8,0-2.2-1.7-2.3-1.7c0-0.1,0-0.2,0.1-0.2c0.1,0,0.2,0,0.2,0.1c0,0.1,0.4,1.8,2.4,1.4
			c1.3-0.2,1.4-3,1.4-3c0-0.1,0.1-0.2,0.2-0.2c0.1,0,0.2,0,0.2,0.1c0,0.1,0.1,0.3,0.1,0.5c0.2,0.7,0.4,1.7,0.9,2.1
			c0.6,0.5,2,0.6,2.7,0.3c0.7-0.3,1.1-1.3,1.1-2.3c0-0.1,0-0.3,0-0.4c0-0.1,0.1-0.2,0.2-0.2c0.1,0,0.2,0.1,0.2,0.2
			c0,0.1,0,0.3,0,0.4c0.2,1,0.8,1.9,1.5,2.1c0.6,0.2,1.2-0.1,1.6-0.7c0.1-0.1,0.2-0.1,0.3,0c0.1,0.1,0.1,0.2,0,0.3
			c-0.5,0.8-1.3,1.1-2,0.9c-0.6-0.2-1.2-0.7-1.5-1.4c-0.2,0.7-0.6,1.4-1.2,1.7c-0.8,0.4-2.4,0.3-3.1-0.3c-0.4-0.4-0.7-1.1-0.8-1.7
			c-0.2,0.9-0.6,2.2-1.6,2.3C185.1,112,184.9,112.1,184.7,112.1z"/>
	</g>
	<g>
		<path class="st7" d="M188.7,106.4c-1.3,0-5.6,0.1-6.1,1c-0.6,1.4,6.4,1.3,7.8,1.2C196.9,108.4,197.6,106,188.7,106.4z"/>
	</g>
	<g>
		<path class="st8" d="M188.7,106.1c-0.7,0-7-0.1-6.4,1.6c0.3,0.8,1.6,0.9,2.3,1c1.5,0.2,3.1,0.2,4.7,0.2c1.4,0,2.7-0.1,4.1-0.3
			c0.6-0.1,1.9-0.3,2.2-1C196.2,105.7,189.2,106.1,188.7,106.1c-0.3,0-0.3,0.5,0,0.5c1.4,0,2.8,0,4.2,0.1c0.2,0,2.7,0.4,1.9,0.9
			c-1.5,1-3.9,0.8-5.6,0.8c-1.9,0-3.9,0.1-5.8-0.4c-0.9-0.2-0.3-0.8,0.3-0.9c0.6-0.2,1.3-0.2,1.9-0.3c1-0.1,2-0.1,3-0.1
			C189,106.6,189,106.1,188.7,106.1z"/>
	</g>
	<g>
		<g>
			<path class="st9" d="M195.4,92.7c-0.1,4.9-0.3,9.8-0.3,14.7c0,0.2,0.4,0.2,0.4,0c0.1-4.9,0.2-9.8,0.3-14.7
				C195.8,92.4,195.4,92.4,195.4,92.7L195.4,92.7z"/>
		</g>
		<g>
			<path class="st9" d="M181.7,92.6c0.2,5,0.2,9.9,0.7,14.8c0,0.2,0.4,0.2,0.4,0c-0.5-4.9-0.6-9.9-0.7-14.8
				C182,92.3,181.6,92.3,181.7,92.6L181.7,92.6z"/>
		</g>
		<g>
			<path class="st9" d="M188.4,93.4c0.4,5-0.1,10,0.3,15c0,0.2,0.4,0.2,0.4,0c-0.4-5,0.1-10-0.3-15
				C188.7,93.2,188.3,93.2,188.4,93.4L188.4,93.4z"/>
		</g>
	</g>
	<path class="st2" d="M214.6,50c-1.6-4-4.4-7.9-9-8.7c0,0-0.1,0-0.1,0c0,0,0,0-0.1,0c-3.4-0.3-5.3,3-6.5,5.6
		c-2.1,4.6-3.1,9.8-3.9,14.8c-1.6,9.8-3.3,20.6-0.5,30.3c0.2,0.5,0.9,0.6,1.2,0.1c3.1-4.7,9.4-6.4,13.5-10.1
		c4.2-3.9,6.4-9.7,7.1-15.3C217.1,61,216.7,55.4,214.6,50z"/>
	<path class="st3" d="M181.1,65.9c-1.5-8.1-5-16.2-9.1-23.3c-0.1-0.2-0.4-0.3-0.6-0.3c-0.1,0-0.2,0-0.3,0.1
		c-4.1,2.1-6.3,6.1-7.7,10.3c-1.5,4.5-2.3,9.9-1.6,14.6c0.9,6.1,4.3,11.4,8.8,15.5c3.7,3.4,8.3,5.6,11.6,9.5
		c0.4,0.4,1.1,0.1,1.1-0.4C183.3,83.1,182.6,74.4,181.1,65.9z"/>
	<path class="st3" d="M200.5,36.6c-3.6-2-7.8-2.3-11.8-1.5c-0.2,0-0.4,0.2-0.4,0.4c-2.4,3.4-2.8,8.3-3.1,12.3
		c-0.6,6.3-0.4,12.8-0.1,19.1c0.4,8.6,1.1,17.1,2.2,25.6c0,0.3,0.3,0.6,0.6,0.6c2.5,0,4.9,0,7.4,0c0.2,0,0.4-0.1,0.6-0.3
		c6.8-12.5,8.7-27.5,9.8-41.4c0.3-3.2,0.5-6.4,0.5-9.5C206.1,39.8,202.1,37.4,200.5,36.6z"/>
	<path class="st2" d="M190.4,37.5c-1.2-6.6-12.9-1.3-16,0.9c-2.9,2.1-3.6,4.1-3.8,7.3c-0.3,5.3,0,10.7,0.7,16
		c0.9,7.3,2.8,14.5,5.7,21.3c0.9,2.1,1.9,4.1,3,6c0.5,0.9,1.6,3.7,2.6,4c1.6,0.4,3.7,0,5.3,0c0.3,0,0.5-0.2,0.6-0.4
		c0-0.1,0-0.1,0.1-0.2c1-12.1,1.8-24.2,2.2-36.4C190.9,50,191.4,43.6,190.4,37.5z"/>
	<g>
		<path class="st9" d="M181.5,93.4c4.7,0.9,9.8,0.8,14.5,0c1.4-0.2,0.8-2.1-0.6-1.8c-4.3,0.8-9,0.8-13.4,0
			C180.7,91.3,180.1,93.1,181.5,93.4L181.5,93.4z"/>
	</g>
	<rect x="159.6" y="215" class="st10" width="207.8" height="26.7"/>
	<text transform="matrix(1 0 0 1 174.7886 227.0018)" class="st0 st11 st12 st13">PAGE NOT FOUND</text>
	<rect x="134.6" y="137.6" class="st10" width="257.7" height="69.6"/>
	<text transform="matrix(1 0 0 1 170.0103 205.286)" class="st0 st11 st14">404</text>
	<rect x="216.4" y="106.6" class="st10" width="94.3" height="21.3"/>
	<text transform="matrix(1 0 0 1 224.604 125.6385)" class="st3 st11 st15 st16">Oops!</text>
</g>
<g id="DESIGNED_BY_FREEPIK">
</g>
</svg>
