<svg xmlns="http://www.w3.org/2000/svg" viewBox="0 0 139.09 41.63"><defs><style>.cls-1{fill:#a3bbc8;fill-rule:evenodd;}.cls-2{font-size:36.52px;fill:#436372;font-family:Rubik-Medium, Rubik;font-weight:500;}</style></defs><path id="Path_324" class="cls-1" d="M.16,28.67a1.11,1.11,0,0,0,.62.39l48,9.8a1.14,1.14,0,0,0,.91-.21.91.91,0,0,0,.31-.8h0L43.79.77a1,1,0,0,0-.45-.64,1.36,1.36,0,0,0-1-.06L7.18,14.12a.94.94,0,0,0-.51.45C6.5,14.89.18,27.65.09,27.83A.8.8,0,0,0,.16,28.67Zm45.58,6.44L25.69,24,36,21.81ZM8,16.23l12.53,7L2.74,26.93Zm1.67-1.17L41.24,2.47,35.68,20.06,23.31,22.64Zm37.65,19-9.78-13.4,4.9-15.52ZM43.48,36l-38-7.76L23,24.54Z" transform="translate(0 -0.01)"/><text class="cls-2" transform="translate(53.16 31.99) scale(0.99 1)">Glee.</text></svg>