<svg width="17" height="15" viewBox="0 0 17 15" fill="none" xmlns="http://www.w3.org/2000/svg">
<path fill-rule="evenodd" clip-rule="evenodd" d="M4.94799 14.9966C4.45666 14.9602 3.99962 14.7349 3.67564 14.3695C3.35166 14.0041 3.18676 13.5278 3.21657 13.0437C3.2499 12.6025 3.44302 12.1878 3.76079 11.875C4.07855 11.5622 4.49984 11.3721 4.94799 11.3393C5.19147 11.3239 5.43529 11.3639 5.6605 11.4563C5.88571 11.5486 6.08626 11.6909 6.24656 11.8719C6.4258 12.0348 6.56883 12.2325 6.66666 12.4525C6.76449 12.6725 6.81499 12.9101 6.81499 13.1502C6.81499 13.3904 6.76449 13.6279 6.66666 13.8479C6.56883 14.0679 6.4258 14.2656 6.24656 14.4285C5.91502 14.7698 5.46322 14.9731 4.98407 14.9966H4.94799ZM4.94799 12.3335C4.73753 12.3335 4.53568 12.4158 4.38686 12.5623C4.23803 12.7088 4.15443 12.9075 4.15443 13.1147C4.15443 13.3219 4.23803 13.5206 4.38686 13.6671C4.53568 13.8136 4.73753 13.8959 4.94799 13.8959H5.27264C5.41475 13.8283 5.53434 13.7223 5.6174 13.5903C5.70046 13.4582 5.74353 13.3055 5.74156 13.1502C5.7451 13.0515 5.72768 12.9531 5.69041 12.8614C5.65315 12.7697 5.59686 12.6867 5.52514 12.6176C5.37713 12.4532 5.17037 12.3515 4.94799 12.3335ZM12.4508 14.9966C11.959 15.026 11.4752 14.8636 11.104 14.5447C10.7327 14.2258 10.5039 13.7759 10.4669 13.2922C10.4371 12.8081 10.602 12.3319 10.926 11.9664C11.25 11.601 11.707 11.3757 12.1983 11.3393H12.4508C12.6991 11.3286 12.9468 11.3706 13.1771 11.4625C13.4074 11.5544 13.6149 11.6941 13.7855 11.8719C14.1313 12.2174 14.3252 12.6829 14.3252 13.168C14.3252 13.653 14.1313 14.1185 13.7855 14.464C13.411 14.7793 12.9426 14.9662 12.4508 14.9966ZM12.4508 12.3335C12.2984 12.3519 12.1529 12.4069 12.0272 12.4936C11.9014 12.5802 11.7991 12.696 11.7294 12.8306C11.6878 12.9214 11.665 13.0194 11.6625 13.1189C11.66 13.2185 11.6778 13.3175 11.7147 13.4101C11.7517 13.5028 11.8072 13.5872 11.8778 13.6585C11.9485 13.7297 12.033 13.7863 12.1262 13.8249C12.3243 13.8954 12.5413 13.8954 12.7394 13.8249C12.9306 13.7391 13.0816 13.5851 13.162 13.394C13.2423 13.2028 13.246 12.9888 13.1723 12.7951C13.1334 12.6991 13.0715 12.6139 12.9919 12.5466C12.842 12.4161 12.6508 12.3409 12.4508 12.3335ZM2.38693 12.3335H2.17051C2.10472 12.3103 2.04455 12.2738 1.99381 12.2265C1.94307 12.1792 1.90287 12.122 1.87574 12.0586C1.84862 11.9952 1.83516 11.9269 1.83623 11.8581C1.83729 11.7893 1.85286 11.7215 1.88193 11.6589C2.12394 11.1279 2.50567 10.6701 2.98764 10.333C3.46961 9.99592 4.03432 9.79169 4.62335 9.74146L3.61336 5.08994C3.60054 4.95504 3.63711 4.82008 3.71648 4.70939C3.79585 4.59871 3.9128 4.51959 4.04621 4.48631C4.18456 4.46547 4.32574 4.49821 4.44008 4.57766C4.55442 4.65712 4.63304 4.77709 4.65942 4.9124L5.63335 9.81248H14.1822L15.7694 3.84717H3.86586C2.93479 3.85746 2.03132 3.53608 1.32202 2.94227C0.612718 2.34845 0.145403 1.52224 0.00622743 0.615956C-0.014943 0.479766 0.0183216 0.340799 0.0990351 0.228241C0.179748 0.115684 0.30163 0.038293 0.439083 0.0123232C0.508101 -0.00309274 0.57964 -0.00405613 0.649061 0.0094955C0.718482 0.0230471 0.784234 0.0508111 0.842053 0.090987C0.899872 0.131163 0.948467 0.182853 0.984686 0.242706C1.0209 0.302559 1.04394 0.369237 1.05229 0.438417C1.16336 1.09377 1.50713 1.68903 2.02238 2.1182C2.53763 2.54737 3.1909 2.78258 3.86586 2.78193H16.4187C16.5032 2.77893 16.5871 2.79687 16.6627 2.83409C16.7383 2.87131 16.8033 2.92663 16.8515 2.99498C16.9232 3.06937 16.9715 3.16256 16.9907 3.26333C17.0099 3.36411 16.9992 3.4682 16.9597 3.5631L15.048 10.6647C14.9841 10.7631 14.891 10.8398 14.7812 10.8843C14.6715 10.9288 14.5505 10.9389 14.4347 10.9132H5.23657C4.75077 10.8655 4.26182 10.9659 3.83597 11.2009C3.41012 11.436 3.06796 11.7942 2.85586 12.227C2.81951 12.3206 2.75529 12.4012 2.67161 12.4582C2.58794 12.5152 2.48871 12.546 2.38693 12.5466V12.3335Z" fill="#243F4D"/>
</svg>
