<svg width="21" height="21" viewBox="0 0 21 21" fill="none" xmlns="http://www.w3.org/2000/svg">
<g clip-path="url(#clip0)">
<path fill-rule="evenodd" clip-rule="evenodd" d="M2.15001 4.3C1.72436 4.30198 1.3077 4.17757 0.952818 3.94253C0.597939 3.70749 0.320813 3.37241 0.15655 2.97972C-0.00771292 2.58704 -0.0517194 2.15444 0.0301061 1.73672C0.111932 1.319 0.315906 0.934977 0.616187 0.633292C0.916468 0.331608 1.29954 0.125845 1.71687 0.0420735C2.1342 -0.0416984 2.56701 0.000290796 2.96045 0.162721C3.35389 0.325152 3.69027 0.600713 3.92696 0.954492C4.16365 1.30827 4.29 1.72435 4.29001 2.15V2.15C4.2874 2.71769 4.06142 3.26153 3.66094 3.66388C3.26045 4.06623 2.71767 4.29475 2.15001 4.3ZM2.15001 12.17C1.72478 12.172 1.30852 12.0478 0.953867 11.8132C0.59921 11.5786 0.322084 11.2441 0.157533 10.852C-0.00701834 10.4599 -0.0516037 10.0278 0.0294146 9.61039C0.110433 9.19295 0.313416 8.80891 0.612696 8.50683C0.911976 8.20476 1.29411 7.99821 1.71078 7.91331C2.12744 7.82841 2.55993 7.86898 2.95354 8.02987C3.34715 8.19077 3.68422 8.46477 3.9221 8.81723C4.15999 9.16969 4.28802 9.58478 4.29001 10.01V10.01C4.29003 10.5794 4.06521 11.1258 3.66444 11.5303C3.26368 11.9348 2.7194 12.1647 2.15001 12.17V12.17ZM2.15001 20.03C1.72436 20.032 1.3077 19.9076 0.952818 19.6725C0.597939 19.4375 0.320813 19.1024 0.15655 18.7097C-0.00771292 18.317 -0.0517194 17.8844 0.0301061 17.4667C0.111932 17.049 0.315906 16.665 0.616187 16.3633C0.916468 16.0616 1.29954 15.8558 1.71687 15.7721C2.1342 15.6883 2.56701 15.7303 2.96045 15.8927C3.35389 16.0552 3.69027 16.3307 3.92696 16.6845C4.16365 17.0383 4.29 17.4543 4.29001 17.88V17.88C4.28736 18.4458 4.06073 18.9876 3.65969 19.3867C3.25865 19.7859 2.71584 20.01 2.15001 20.01V20.03ZM10 4.3C9.57478 4.3 9.1591 4.17391 8.80553 3.93766C8.45196 3.70142 8.17639 3.36563 8.01367 2.97277C7.85094 2.57991 7.80836 2.14762 7.89132 1.73056C7.97428 1.3135 8.17904 0.930404 8.47973 0.629721C8.78041 0.329038 9.1635 0.124271 9.58056 0.0413126C9.99762 -0.0416456 10.4299 0.000931561 10.8228 0.16366C11.2156 0.326388 11.5514 0.601959 11.7877 0.955525C12.0239 1.30909 12.15 1.72477 12.15 2.15C12.15 2.72022 11.9235 3.26708 11.5203 3.67028C11.1171 4.07348 10.5702 4.3 10 4.3V4.3ZM10 12.17C9.57564 12.168 9.16134 12.0405 8.80931 11.8035C8.45728 11.5665 8.18326 11.2306 8.02178 10.8382C7.86029 10.4457 7.81856 10.0142 7.90183 9.59812C7.98511 9.182 8.18967 8.79982 8.48975 8.49975C8.78983 8.19967 9.172 7.9951 9.58813 7.91183C10.0043 7.82855 10.4357 7.87028 10.8282 8.03177C11.2206 8.19326 11.5565 8.46728 11.7935 8.81931C12.0305 9.17133 12.158 9.58563 12.16 10.01C12.1613 10.294 12.1064 10.5755 11.9983 10.8382C11.8902 11.1008 11.7311 11.3395 11.5303 11.5403C11.3295 11.7411 11.0908 11.9002 10.8282 12.0083C10.5655 12.1164 10.284 12.1713 10 12.17V12.17ZM10 20.01C9.57435 20.01 9.15828 19.8836 8.8045 19.647C8.45072 19.4103 8.17516 19.0739 8.01273 18.6804C7.8503 18.287 7.80831 17.8542 7.89208 17.4369C7.97585 17.0195 8.18161 16.6365 8.4833 16.3362C8.78498 16.0359 9.16901 15.8319 9.58673 15.7501C10.0044 15.6683 10.437 15.7123 10.8297 15.8765C11.2224 16.0408 11.5575 16.3179 11.7925 16.6728C12.0276 17.0277 12.152 17.4444 12.15 17.87C12.15 18.1519 12.0943 18.431 11.9862 18.6913C11.878 18.9516 11.7195 19.1879 11.5197 19.3868C11.3199 19.5856 11.0828 19.743 10.822 19.85C10.5612 19.9569 10.2819 20.0113 10 20.01ZM17.88 4.3C17.4535 4.30595 17.035 4.18493 16.6775 3.95233C16.32 3.71974 16.0397 3.38607 15.8724 2.99377C15.7051 2.60147 15.6582 2.16827 15.7377 1.74925C15.8173 1.33023 16.0196 0.94434 16.3191 0.640649C16.6185 0.336958 17.0015 0.129191 17.4194 0.0437718C17.8373 -0.0416471 18.2711 -0.000857949 18.6657 0.160952C19.0603 0.322761 19.3979 0.598279 19.6355 0.952466C19.8731 1.30665 20 1.7235 20 2.15C20 2.72022 19.7735 3.26708 19.3703 3.67028C18.9671 4.07348 18.4202 4.3 17.85 4.3H17.88ZM17.88 12.17C17.454 12.1759 17.0358 12.0552 16.6785 11.823C16.3213 11.5908 16.041 11.2578 15.8734 10.8661C15.7058 10.4743 15.6583 10.0417 15.7371 9.62292C15.8158 9.20418 16.0172 8.81829 16.3156 8.5142C16.6141 8.21012 16.9961 8.00158 17.4133 7.91503C17.8305 7.82849 18.264 7.86785 18.6588 8.02812C19.0536 8.18839 19.3918 8.46235 19.6306 8.81521C19.8694 9.16808 19.998 9.58393 20 10.01C20 10.5802 19.7735 11.1271 19.3703 11.5303C18.9671 11.9335 18.4202 12.16 17.85 12.16L17.88 12.17ZM17.88 20.03C17.4531 20.036 17.0341 19.9147 16.6764 19.6816C16.3187 19.4486 16.0385 19.1143 15.8714 18.7215C15.7044 18.3286 15.6581 17.8948 15.7385 17.4756C15.8188 17.0563 16.0222 16.6704 16.3226 16.3671C16.6231 16.0638 17.007 15.8568 17.4256 15.7725C17.8441 15.6882 18.2782 15.7305 18.6727 15.8938C19.0671 16.0572 19.404 16.3342 19.6404 16.6897C19.8768 17.0452 20.0019 17.4631 20 17.89C19.9948 18.4506 19.7698 18.9868 19.3733 19.3833C18.9769 19.7798 18.4406 20.0048 17.88 20.01V20.03Z" fill="white"/>
</g>
<defs>
<clipPath id="clip0">
<rect width="20.03" height="20.03" fill="white"/>
</clipPath>
</defs>
</svg>
