<svg xmlns="http://www.w3.org/2000/svg" xmlns:xlink="http://www.w3.org/1999/xlink" width="12pt" height="12pt" version="1.1">
<g id="surface1">
<path d="M 12 6.136719 C 12 9.453125 9.617188 11.8125 6.097656 11.8125 C 2.722656 11.8125 0 9.214844 0 6 C 0 2.785156 2.722656 0.1875 6.097656 0.1875 C 7.742188 0.1875 9.121094 0.761719 10.1875 1.707031 L 8.527344 3.230469 C 6.355469 1.234375 2.320312 2.734375 2.320312 6 C 2.320312 8.027344 4.019531 9.671875 6.097656 9.671875 C 8.511719 9.671875 9.417969 8.019531 9.5625 7.164062 L 6.097656 7.164062 L 6.097656 5.164062 L 11.902344 5.164062 C 11.960938 5.464844 12 5.75 12 6.136719 Z M 12 6.136719 "/>
</g>
</svg>
