<svg xmlns="http://www.w3.org/2000/svg" xmlns:xlink="http://www.w3.org/1999/xlink" width="12pt" height="13pt" version="1.1">
<g id="surface1">
<path d="M 6.003906 3.578125 C 4.300781 3.578125 2.925781 4.882812 2.925781 6.496094 C 2.925781 8.113281 4.300781 9.414062 6.003906 9.414062 C 7.707031 9.414062 9.082031 8.113281 9.082031 6.496094 C 9.082031 4.882812 7.707031 3.578125 6.003906 3.578125 Z M 6.003906 8.394531 C 4.902344 8.394531 4 7.542969 4 6.496094 C 4 5.453125 4.898438 4.601562 6.003906 4.601562 C 7.105469 4.601562 8.003906 5.453125 8.003906 6.496094 C 8.003906 7.542969 7.105469 8.394531 6.003906 8.394531 Z M 9.925781 3.460938 C 9.925781 3.839844 9.601562 4.140625 9.207031 4.140625 C 8.808594 4.140625 8.488281 3.835938 8.488281 3.460938 C 8.488281 3.085938 8.808594 2.78125 9.207031 2.78125 C 9.601562 2.78125 9.925781 3.085938 9.925781 3.460938 Z M 11.960938 4.152344 C 11.917969 3.238281 11.699219 2.433594 10.992188 1.765625 C 10.292969 1.101562 9.4375 0.894531 8.476562 0.847656 C 7.488281 0.792969 4.515625 0.792969 3.523438 0.847656 C 2.566406 0.890625 1.714844 1.097656 1.011719 1.765625 C 0.304688 2.429688 0.0898438 3.238281 0.0390625 4.148438 C -0.015625 5.089844 -0.015625 7.902344 0.0390625 8.84375 C 0.0859375 9.753906 0.304688 10.5625 1.011719 11.226562 C 1.714844 11.894531 2.5625 12.101562 3.523438 12.148438 C 4.515625 12.199219 7.488281 12.199219 8.476562 12.148438 C 9.4375 12.105469 10.292969 11.894531 10.992188 11.226562 C 11.695312 10.5625 11.914062 9.753906 11.960938 8.84375 C 12.019531 7.902344 12.019531 5.089844 11.960938 4.152344 Z M 10.683594 9.851562 C 10.472656 10.347656 10.070312 10.734375 9.542969 10.933594 C 8.75 11.230469 6.875 11.160156 6.003906 11.160156 C 5.128906 11.160156 3.25 11.226562 2.464844 10.933594 C 1.9375 10.734375 1.535156 10.351562 1.324219 9.851562 C 1.011719 9.101562 1.082031 7.324219 1.082031 6.496094 C 1.082031 5.667969 1.011719 3.890625 1.324219 3.144531 C 1.53125 2.644531 1.9375 2.261719 2.464844 2.0625 C 3.253906 1.765625 5.128906 1.832031 6.003906 1.832031 C 6.875 1.832031 8.753906 1.765625 9.542969 2.0625 C 10.066406 2.261719 10.46875 2.644531 10.683594 3.144531 C 10.996094 3.890625 10.921875 5.667969 10.921875 6.496094 C 10.921875 7.324219 10.996094 9.105469 10.683594 9.851562 Z M 10.683594 9.851562 "/>
</g>
</svg>
