<svg width="15" height="15" viewBox="0 0 15 15" fill="none" xmlns="http://www.w3.org/2000/svg">
<path fill-rule="evenodd" clip-rule="evenodd" d="M2.97269 5.9766C3.04904 5.95755 3.12839 5.9539 3.20615 5.96586C3.28392 5.97782 3.35856 6.00515 3.42578 6.04627C3.49299 6.08739 3.55145 6.14149 3.59778 6.20546C3.64411 6.26942 3.6774 6.34197 3.69572 6.41894V6.41894C3.78217 6.97839 4.05012 7.49335 4.45784 7.8836C4.85773 8.27799 5.35817 8.55354 5.9039 8.67982C6.06296 8.71299 6.20254 8.80806 6.29222 8.94431C6.3819 9.08057 6.41441 9.24696 6.38267 9.40723C6.35174 9.56565 6.26146 9.70604 6.13052 9.79935C5.99957 9.89267 5.83798 9.93177 5.67918 9.90856C4.88886 9.75779 4.16175 9.37171 3.59208 8.80034C3.02241 8.22897 2.63643 7.49865 2.48415 6.70401C2.44553 6.55281 2.46806 6.39238 2.54682 6.25787C2.62557 6.12335 2.75412 6.02574 2.90429 5.98643L2.97269 5.9766ZM6.15794 7.90016e-06C7.78104 -0.00260475 9.33883 0.642897 10.4893 1.79478C11.6397 2.94667 12.2888 4.51078 12.294 6.1437V6.1437C12.3054 7.02731 12.1253 7.9028 11.7663 8.70931L14.0527 10.6753C15.7137 12.3955 14.7757 13.8897 14.336 14.332C13.8964 14.7744 12.3819 15.718 10.6916 14.047L8.64948 11.7959C7.16593 12.4672 5.47806 12.5181 3.9572 11.9374C2.43633 11.3567 1.20705 10.192 0.539775 8.69948C-0.1275 7.20694 -0.178106 5.50885 0.39909 3.97878C0.976285 2.4487 2.134 1.21197 3.61755 0.540653C4.41787 0.184983 5.28303 0.000860738 6.15794 7.90016e-06V7.90016e-06ZM11.5807 13.2901C11.799 13.5591 12.1128 13.7321 12.4556 13.7724C12.7985 13.8128 13.1435 13.7174 13.4176 13.5063C13.5244 13.3757 13.6045 13.2251 13.653 13.0631C13.7015 12.9012 13.7176 12.7312 13.7004 12.5629C13.6831 12.3947 13.6328 12.2316 13.5524 12.083C13.472 11.9345 13.3631 11.8035 13.232 11.6976V11.6976L11.0824 9.82992C10.7065 10.3359 10.255 10.7803 9.7438 11.1471L11.5807 13.2901ZM6.15794 11.0193C7.12418 11.0193 8.06871 10.7311 8.87211 10.191C9.6755 9.65096 10.3017 8.88335 10.6714 7.98526C11.0412 7.08717 11.1379 6.09893 10.9494 5.14552C10.7609 4.19212 10.2956 3.31635 9.61242 2.62899C8.92919 1.94162 8.0587 1.47351 7.11103 1.28387C6.16336 1.09422 5.18108 1.19155 4.2884 1.56356C3.39571 1.93556 2.63272 2.56552 2.09591 3.37378C1.5591 4.18204 1.27258 5.1323 1.27258 6.10438C1.27258 7.40791 1.78729 8.65805 2.70347 9.57978C3.61965 10.5015 4.86226 11.0193 6.15794 11.0193V11.0193Z" fill="#243F4D"/>
</svg>
